<svg width="51" height="51" viewBox="0 0 51 51" fill="none" xmlns="http://www.w3.org/2000/svg">
<path d="M25.2108 4.66678L20.1219 16.5127H15.033C14.1884 16.5127 13.3649 16.5761 12.5625 16.745L14.6741 11.6772L14.7585 11.4872L14.8852 11.1493C14.9486 11.0015 14.9908 10.8748 15.0542 10.7692C17.5036 5.0891 20.2486 3.31538 25.2108 4.66678Z" fill="#154618"/>
<path d="M39.5487 17.0827L39.5064 17.0616C38.2395 16.7027 36.9514 16.5126 35.6423 16.5126H22.4238L27.1749 5.4691L27.2382 5.32129C27.5338 5.42687 27.8506 5.57468 28.1673 5.68026L32.8339 7.64402C35.4311 8.72092 37.2471 9.84005 38.3662 11.1915C38.5562 11.4448 38.7252 11.6771 38.8941 11.9516C39.0841 12.2472 39.2319 12.5429 39.3164 12.8596C39.4009 13.0496 39.4642 13.2186 39.5064 13.4086C39.8232 14.4855 39.8443 15.7102 39.5487 17.0827Z" fill="#154618"/>
<path d="M26.4355 37.2906H26.9634C27.5969 37.2906 28.1248 36.7204 28.1248 36.0236C28.1248 35.1368 27.8714 35.0101 27.3224 34.7989L26.4355 34.4822V37.2906Z" fill="#154618"/>
<path d="M38.6212 20.1022C37.671 19.8277 36.6786 19.6799 35.6439 19.6799H15.0349C13.5991 19.6799 12.2477 19.9544 10.9807 20.5034C7.30659 22.0871 4.73047 25.7401 4.73047 29.9844V34.102C4.73047 34.6087 4.7727 35.0944 4.83605 35.6012C5.30059 42.316 8.89026 45.9057 15.6051 46.3491C16.0907 46.4124 16.5764 46.4547 17.1043 46.4547H33.5745C41.3874 46.4547 45.5049 42.7383 45.9061 35.3478C45.9272 34.9466 45.9484 34.5243 45.9484 34.102V29.9844C45.9484 25.3178 42.8443 21.3903 38.6212 20.1022ZM28.0422 32.7294C29.0135 33.0673 30.3227 33.7852 30.3227 36.0235C30.3227 37.945 28.8235 39.4865 26.9653 39.4865H26.4374V39.951C26.4374 40.5634 25.9518 41.049 25.3394 41.049C24.7271 41.049 24.2414 40.5634 24.2414 39.951V39.4865H24.0514C22.0242 39.4865 20.3561 37.7761 20.3561 35.6645C20.3561 35.0522 20.8418 34.5665 21.4541 34.5665C22.0665 34.5665 22.5521 35.0522 22.5521 35.6645C22.5521 36.5514 23.2278 37.2904 24.0514 37.2904H24.2414V33.7219L22.6366 33.1518C21.6653 32.8139 20.3561 32.096 20.3561 29.8577C20.3561 27.9362 21.8553 26.3947 23.7135 26.3947H24.2414V25.9302C24.2414 25.3178 24.7271 24.8322 25.3394 24.8322C25.9518 24.8322 26.4374 25.3178 26.4374 25.9302V26.3947H26.6275C28.6546 26.3947 30.3227 28.1051 30.3227 30.2167C30.3227 30.829 29.8371 31.3147 29.2247 31.3147C28.6124 31.3147 28.1267 30.829 28.1267 30.2167C28.1267 29.3298 27.451 28.5908 26.6275 28.5908H26.4374V32.1593L28.0422 32.7294Z" fill="#154618"/>
<path d="M22.5508 29.8578C22.5508 30.7446 22.8042 30.8713 23.3532 31.0825L24.24 31.3992V28.5908H23.7121C23.0576 28.5908 22.5508 29.1609 22.5508 29.8578Z" fill="#154618"/>
</svg>
